<svg width="48" height="48" viewBox="0 0 48 48" fill="none" xmlns="http://www.w3.org/2000/svg">
<path d="M10.5713 45.6637C10.5713 45.6637 9.915 46.5 8.20875 46.5C6.5025 46.5 5.84625 45.6637 5.84625 45.6637V16.3913H10.5713V45.6637Z" fill="#9E9E9E"/>
<path d="M10.5713 45.6638C10.5713 45.6638 9.915 46.5 8.20875 46.5C6.5025 46.5 5.84625 45.6638 5.84625 45.6638V34.3875C5.84625 34.3875 6.32625 33.4725 8.08125 33.4725C9.83625 33.4725 10.5713 34.3875 10.5713 34.3875V45.6638Z" fill="#BDBDBD"/>
<path d="M42.15 45.6637C42.15 45.6637 41.4937 46.5 39.7875 46.5C38.0812 46.5 37.425 45.6637 37.425 45.6637V16.3913H42.15V45.6637Z" fill="#9E9E9E"/>
<path d="M42.15 45.6638C42.15 45.6638 41.4937 46.5 39.7875 46.5C38.0812 46.5 37.425 45.6638 37.425 45.6638V34.3875C37.425 34.3875 37.905 33.4725 39.66 33.4725C41.415 33.4725 42.15 34.3875 42.15 34.3875V45.6638Z" fill="#BDBDBD"/>
<path d="M45.4762 30.6975H2.52375C1.9575 30.6975 1.5 30.24 1.5 29.6738V16.5638C1.5 15.9975 1.9575 15.54 2.52375 15.54H45.4762C46.0425 15.54 46.5 15.9975 46.5 16.5638V29.6738C46.5 30.24 46.0425 30.6975 45.4762 30.6975Z" fill="#9E9E9E"/>
<path d="M45.4762 16.29H2.52375C1.9575 16.29 1.5 16.7475 1.5 17.3138V30.4238C1.5 30.99 1.9575 31.4475 2.52375 31.4475H45.4762C46.0425 31.4475 46.5 30.99 46.5 30.4238V17.3138C46.5 16.7475 46.0425 16.29 45.4762 16.29Z" fill="#FFD600"/>
<path d="M6.53625 16.29L1.5 21.3263V28.7513L13.9612 16.29H6.53625ZM20.6625 16.29L5.50875 31.4475H12.9338L28.0875 16.29H20.6625ZM34.7925 16.29L19.635 31.4475H27.06L42.2137 16.29H34.7925ZM46.5 18.7088L33.7612 31.4475H41.1863L46.5 26.1338V18.7088Z" fill="#212121"/>
<path d="M42.675 16.9462H36.9038C36.3638 16.9462 35.9663 16.5937 36.0938 16.2337L36.495 13.7175H43.0763L43.4775 16.2337C43.6125 16.5975 43.215 16.9462 42.675 16.9462Z" fill="#E2A610"/>
<path d="M39.7875 13.6575C42.4198 13.6575 44.5537 11.5236 44.5537 8.89125C44.5537 6.25892 42.4198 4.125 39.7875 4.125C37.1552 4.125 35.0212 6.25892 35.0212 8.89125C35.0212 11.5236 37.1552 13.6575 39.7875 13.6575Z" fill="#FFCA28"/>
<path d="M39.7875 12.4125C41.7322 12.4125 43.3087 10.836 43.3087 8.89124C43.3087 6.94651 41.7322 5.37 39.7875 5.37C37.8428 5.37 36.2662 6.94651 36.2662 8.89124C36.2662 10.836 37.8428 12.4125 39.7875 12.4125Z" fill="#FF5722"/>
<path d="M43.08 13.755H36.4987C36.4987 13.755 36.5212 12.705 38.4037 12.705H41.1937C43.185 12.705 43.08 13.755 43.08 13.755Z" fill="#FFCA28"/>
<path d="M40.2037 7.20375L41.1037 6.04125C41.145 5.98875 41.2275 6.03 41.2125 6.09375L40.8637 7.5225C40.7812 7.85625 41.0362 8.17875 41.3812 8.17125L42.8512 8.14875C42.9187 8.14875 42.9375 8.23875 42.8775 8.26875L41.5425 8.8875C41.2312 9.03375 41.1412 9.43125 41.3587 9.6975L42.2925 10.8338C42.3337 10.8863 42.2775 10.9575 42.2175 10.9275L40.9012 10.2713C40.5937 10.1175 40.2262 10.2938 40.1512 10.6313L39.8437 12.0713C39.8287 12.1388 39.735 12.1388 39.7237 12.0713L39.4162 10.6313C39.345 10.2938 38.9737 10.1175 38.6662 10.2713L37.35 10.9275C37.29 10.9575 37.23 10.8825 37.275 10.8338L38.2087 9.6975C38.4262 9.43125 38.3362 9.03375 38.025 8.8875L36.69 8.26875C36.63 8.23875 36.6487 8.14875 36.7162 8.14875L38.1862 8.17125C38.5312 8.175 38.7862 7.85625 38.7037 7.5225L38.355 6.09375C38.34 6.03 38.4225 5.98875 38.4637 6.04125L39.3637 7.20375C39.585 7.47375 39.9937 7.47375 40.2037 7.20375Z" fill="#FFD5CA"/>
<path d="M11.0962 16.9462H5.32499C4.78499 16.9462 4.38749 16.5937 4.51499 16.2337L4.91624 13.7175H11.4975L11.8987 16.2337C12.0337 16.5975 11.6362 16.9462 11.0962 16.9462Z" fill="#E2A610"/>
<path d="M8.21251 13.6575C10.8448 13.6575 12.9788 11.5236 12.9788 8.89125C12.9788 6.25892 10.8448 4.125 8.21251 4.125C5.58018 4.125 3.44626 6.25892 3.44626 8.89125C3.44626 11.5236 5.58018 13.6575 8.21251 13.6575Z" fill="#FFCA28"/>
<path d="M8.2125 12.4125C10.1572 12.4125 11.7338 10.836 11.7338 8.89124C11.7338 6.94651 10.1572 5.37 8.2125 5.37C6.26777 5.37 4.69125 6.94651 4.69125 8.89124C4.69125 10.836 6.26777 12.4125 8.2125 12.4125Z" fill="#FF5722"/>
<path d="M11.5013 13.755H4.92001C4.92001 13.755 4.94251 12.705 6.82501 12.705H9.61501C11.6063 12.705 11.5013 13.755 11.5013 13.755Z" fill="#FFCA28"/>
<path d="M8.62501 7.20375L9.52501 6.04125C9.56626 5.98875 9.64876 6.03 9.63376 6.09375L9.28501 7.5225C9.20251 7.85625 9.45751 8.17875 9.80251 8.17125L11.2725 8.14875C11.34 8.14875 11.3588 8.23875 11.2988 8.26875L9.96376 8.8875C9.65251 9.03375 9.56251 9.43125 9.78001 9.6975L10.7138 10.8338C10.755 10.8863 10.6988 10.9575 10.6388 10.9275L9.32251 10.2713C9.01501 10.1175 8.64751 10.2938 8.57251 10.6313L8.26501 12.0713C8.25001 12.1388 8.15626 12.1388 8.14501 12.0713L7.83751 10.6313C7.76626 10.2938 7.39501 10.1175 7.08751 10.2713L5.77126 10.9275C5.71126 10.9575 5.65126 10.8825 5.69626 10.8338L6.63001 9.6975C6.84751 9.43125 6.75751 9.03375 6.44626 8.8875L5.11126 8.26875C5.05126 8.23875 5.07001 8.14875 5.13751 8.14875L6.60751 8.17125C6.95251 8.175 7.20751 7.85625 7.12501 7.5225L6.77626 6.09375C6.76126 6.03 6.84376 5.98875 6.88501 6.04125L7.78501 7.20375C8.00626 7.47375 8.41501 7.47375 8.62501 7.20375Z" fill="#FFD5CA"/>
</svg>
