<svg width="48" height="48" viewBox="0 0 48 48" fill="none" xmlns="http://www.w3.org/2000/svg">
<path d="M16.8 18C16.8 17.6817 16.9264 17.3765 17.1514 17.1515C17.3765 16.9264 17.6817 16.8 18 16.8H30C30.3182 16.8 30.6235 16.9264 30.8485 17.1515C31.0735 17.3765 31.2 17.6817 31.2 18C31.2 18.3183 31.0735 18.6235 30.8485 18.8485C30.6235 19.0736 30.3182 19.2 30 19.2H18C17.6817 19.2 17.3765 19.0736 17.1514 18.8485C16.9264 18.6235 16.8 18.3183 16.8 18ZM18 24C17.6817 24 17.3765 24.1264 17.1514 24.3515C16.9264 24.5765 16.8 24.8817 16.8 25.2C16.8 25.5183 16.9264 25.8235 17.1514 26.0485C17.3765 26.2736 17.6817 26.4 18 26.4H30C30.3182 26.4 30.6235 26.2736 30.8485 26.0485C31.0735 25.8235 31.2 25.5183 31.2 25.2C31.2 24.8817 31.0735 24.5765 30.8485 24.3515C30.6235 24.1264 30.3182 24 30 24H18ZM16.8 32.4C16.8 32.0817 16.9264 31.7765 17.1514 31.5515C17.3765 31.3264 17.6817 31.2 18 31.2H22.8C23.1182 31.2 23.4235 31.3264 23.6485 31.5515C23.8735 31.7765 24 32.0817 24 32.4C24 32.7183 23.8735 33.0235 23.6485 33.2485C23.4235 33.4736 23.1182 33.6 22.8 33.6H18C17.6817 33.6 17.3765 33.4736 17.1514 33.2485C16.9264 33.0235 16.8 32.7183 16.8 32.4ZM14.4 6C14.4 5.68174 14.5264 5.37652 14.7514 5.15148C14.9765 4.92643 15.2817 4.8 15.6 4.8C15.9182 4.8 16.2235 4.92643 16.4485 5.15148C16.6735 5.37652 16.8 5.68174 16.8 6V7.2H22.8V6C22.8 5.68174 22.9264 5.37652 23.1514 5.15148C23.3765 4.92643 23.6817 4.8 24 4.8C24.3182 4.8 24.6235 4.92643 24.8485 5.15148C25.0735 5.37652 25.2 5.68174 25.2 6V7.2H31.2V6C31.2 5.68174 31.3264 5.37652 31.5514 5.15148C31.7765 4.92643 32.0817 4.8 32.4 4.8C32.7182 4.8 33.0235 4.92643 33.2485 5.15148C33.4735 5.37652 33.6 5.68174 33.6 6V7.2H34.8C35.7548 7.2 36.6704 7.57929 37.3456 8.25442C38.0207 8.92955 38.4 9.84522 38.4 10.8V22.1568C37.6176 22.4928 36.8832 22.9776 36.2448 23.6184L36 23.8632V10.8C36 10.4817 35.8735 10.1765 35.6485 9.95148C35.4235 9.72643 35.1182 9.6 34.8 9.6H13.2C12.8817 9.6 12.5765 9.72643 12.3514 9.95148C12.1264 10.1765 12 10.4817 12 10.8V39.6C12 39.9183 12.1264 40.2235 12.3514 40.4485C12.5765 40.6736 12.8817 40.8 13.2 40.8H22.128L21.7368 42.3672C21.6664 42.6488 21.6232 42.9264 21.6072 43.2H13.2C12.2452 43.2 11.3295 42.8207 10.6544 42.1456C9.97926 41.4705 9.59998 40.5548 9.59998 39.6V10.8C9.59998 9.84522 9.97926 8.92955 10.6544 8.25442C11.3295 7.57929 12.2452 7.2 13.2 7.2H14.4V6ZM37.944 25.3152L26.352 36.9072C25.6767 37.5827 25.1972 38.4288 24.9648 39.3552L24.0648 42.9504C23.976 43.308 23.9813 43.6824 24.08 44.0374C24.1787 44.3923 24.3676 44.7157 24.6282 44.9761C24.8888 45.2365 25.2124 45.425 25.5674 45.5234C25.9224 45.6218 26.2969 45.6267 26.6544 45.5376L30.2496 44.64C31.176 44.4075 32.0221 43.9281 32.6976 43.2528L44.2896 31.6608C45.1203 30.8168 45.5838 29.6786 45.579 28.4944C45.5742 27.3101 45.1015 26.1757 44.2639 25.3385C43.4263 24.5012 42.2918 24.029 41.1075 24.0246C39.9233 24.0203 38.7853 24.4842 37.9416 25.3152" fill="#808080"/>
</svg>
