<svg width="60" height="60" viewBox="0 0 60 60" fill="none" xmlns="http://www.w3.org/2000/svg">
<g clip-path="url(#clip0_429_96)">
<path fill-rule="evenodd" clip-rule="evenodd" d="M35.7598 6.86729L49.6217 13.9819C50.0219 13.6055 50.4812 13.2824 50.9852 13.0227C53.86 11.5535 57.5269 12.4258 59.1968 14.9815C60.8495 17.5371 59.8682 20.7965 56.9933 22.2808C56.4929 22.537 55.9537 22.7278 55.3923 22.8475V37.0819C55.9476 37.2018 56.4809 37.3913 56.9761 37.6448C59.8682 39.1292 60.8495 42.3887 59.1797 44.9444C57.5269 47.4998 53.8429 48.3721 50.9679 46.9031C50.4109 46.6191 49.9092 46.257 49.482 45.8308L35.7045 52.9017C35.9063 53.4447 36.0088 54.0131 36.008 54.585C36.008 57.5231 33.3226 59.9258 30 59.9258C26.6774 59.9258 23.992 57.5383 23.992 54.585C23.992 54.06 24.0769 53.5529 24.2351 53.074L10.3769 45.9615C9.98113 46.3304 9.52833 46.6475 9.03214 46.9031C6.14005 48.3721 2.47314 47.4998 0.820384 44.9444C-0.832138 42.3887 0.149157 39.1292 3.0239 37.6448C3.51914 37.3913 4.05243 37.2017 4.60776 37.0817V22.8475C4.04631 22.7278 3.50713 22.537 3.00679 22.2808C0.131814 20.8119 -0.849481 17.5371 0.803276 14.9815C2.45603 12.4258 6.13981 11.5535 9.01479 13.0227C9.51613 13.281 9.97312 13.602 10.3718 13.9758L24.2376 6.85937C24.0742 6.36623 23.9915 5.85473 23.992 5.34062C23.992 2.3875 26.6774 0 30 0C33.3226 0 36.008 2.38729 36.008 5.34062C36.008 5.87146 35.9213 6.38375 35.7598 6.86729ZM34.3157 9.05937L48.2106 16.1906C47.9893 16.8781 47.9259 17.5982 48.024 18.3079C48.1221 19.0177 48.3798 19.7026 48.7817 20.3221C49.6276 21.63 51.0054 22.4971 52.5347 22.835V37.0871C52.4566 37.104 52.379 37.1225 52.3019 37.1421L34.1542 9.20208C34.209 9.15542 34.2629 9.10771 34.3157 9.05937ZM25.8496 9.20521L7.70211 37.1448C7.62364 37.1246 7.54472 37.1059 7.46539 37.0885V22.835C8.99464 22.4971 10.3725 21.63 11.2183 20.3221C11.6211 19.7015 11.879 19.0151 11.9767 18.3039C12.0744 17.5927 12.01 16.8713 11.7871 16.1827L25.6781 9.05354C25.7341 9.105 25.7913 9.15562 25.8496 9.205V9.20521ZM31.6788 10.4708L49.8221 38.4042C49.4065 38.7567 49.0503 39.1606 48.7644 39.6035C48.4792 40.0438 48.266 40.5178 48.1311 41.0115H11.8694C11.7343 40.5178 11.5209 40.0438 11.2357 39.6035C10.9488 39.1637 10.5932 38.7622 10.1796 38.411L28.3264 10.4721C28.8705 10.6113 29.4339 10.6818 30 10.6812C30.5829 10.6812 31.1461 10.6079 31.6788 10.4708ZM34.4432 50.9871L48.2478 43.9021C48.2065 43.7864 48.1695 43.6695 48.137 43.5517H11.8617C11.8424 43.6209 11.8216 43.6898 11.7993 43.7583L25.6715 50.8781C26.2317 50.3603 26.904 49.9486 27.6479 49.6679C28.3917 49.3871 29.1919 49.243 30 49.2444C30.8364 49.2431 31.6639 49.3975 32.4291 49.6976C33.1944 49.9978 33.8804 50.437 34.4432 50.9871Z" fill="#E535AB"/>
</g>
<defs>
<clipPath id="clip0_429_96">
<rect width="60" height="60" fill="white"/>
</clipPath>
</defs>
</svg>
