<svg width="48" height="48" viewBox="0 0 48 48" fill="none" xmlns="http://www.w3.org/2000/svg">
<path d="M20.74 13.128C24.6789 12.6261 28.6808 13.0781 32.4085 14.446C36.1362 15.8139 39.4806 18.0575 42.16 20.988C43.032 21.94 44.442 20.522 43.576 19.572C40.7146 16.451 37.1505 14.0571 33.1791 12.5886C29.2077 11.1201 24.9435 10.6194 20.74 11.128C19.478 11.28 19.464 13.282 20.74 13.128ZM27.814 20.566C31.239 21.3659 34.3384 23.1919 36.698 25.8C37.566 26.754 38.976 25.336 38.112 24.386C35.5083 21.5333 32.1048 19.5322 28.346 18.644C27.094 18.352 26.56 20.28 27.814 20.574V20.566Z" fill="#808080"/>
<path d="M24.006 36.084C25.2431 36.084 26.246 35.0811 26.246 33.844C26.246 32.6069 25.2431 31.604 24.006 31.604C22.7689 31.604 21.766 32.6069 21.766 33.844C21.766 35.0811 22.7689 36.084 24.006 36.084Z" fill="#808080"/>
<path d="M39.546 38.12C39.6392 38.2132 39.7132 38.3239 39.7637 38.4458C39.8141 38.5676 39.8401 38.6981 39.8401 38.83C39.8401 38.9619 39.8141 39.0924 39.7637 39.2142C39.7132 39.3361 39.6392 39.4468 39.546 39.54C39.4528 39.6332 39.3421 39.7072 39.2203 39.7577C39.0984 39.8081 38.9679 39.8341 38.836 39.8341C38.7041 39.8341 38.5736 39.8081 38.4518 39.7577C38.3299 39.7072 38.2192 39.6332 38.126 39.54L26.446 27.86C24.8436 27.414 23.1487 27.4229 21.551 27.8856C19.9534 28.3484 18.516 29.2467 17.4 30.48C16.54 31.44 15.12 30.02 15.98 29.08C17.0101 27.9528 18.2647 27.0537 19.6632 26.4406C21.0617 25.8274 22.573 25.5138 24.1 25.52L19.36 20.78C16.2553 21.6849 13.4643 23.4371 11.3 25.84C10.44 26.8 9.04001 25.38 9.90001 24.42C12.0433 22.0392 14.7571 20.2428 17.786 19.2L13.766 15.18C10.7644 16.5991 8.07288 18.5974 5.84601 21.06C5.7556 21.164 5.64468 21.2482 5.52021 21.3073C5.39573 21.3664 5.26038 21.3991 5.12265 21.4034C4.98493 21.4078 4.84779 21.3836 4.71986 21.3324C4.59192 21.2812 4.47595 21.2041 4.3792 21.106C4.28246 21.0079 4.20704 20.8908 4.15768 20.7622C4.10832 20.6335 4.08607 20.4961 4.09235 20.3584C4.09862 20.2208 4.13327 20.0859 4.19413 19.9623C4.25499 19.8386 4.34074 19.7289 4.44601 19.64C6.6532 17.1776 9.30658 15.1554 12.266 13.68L8.46601 9.88C8.2777 9.6917 8.17191 9.4363 8.17191 9.17C8.17191 8.9037 8.2777 8.6483 8.46601 8.46C8.65431 8.2717 8.9097 8.16591 9.17601 8.16591C9.44231 8.16591 9.6977 8.2717 9.88601 8.46L39.546 38.12Z" fill="#808080"/>
</svg>
